<mxfile host="app.diagrams.net" modified="2023-11-08T14:36:06.218Z" agent="Mozilla/5.0 (Windows NT 10.0; Win64; x64) AppleWebKit/537.36 (KHTML, like Gecko) Chrome/118.0.0.0 Safari/537.36" etag="oAvo5GZpaGMNST_Zedou" version="22.0.8" type="device">
  <diagram id="R2lEEEUBdFMjLlhIrx00" name="Page-1">
    <mxGraphModel dx="2208" dy="558" grid="1" gridSize="10" guides="1" tooltips="1" connect="1" arrows="1" fold="1" page="1" pageScale="1" pageWidth="850" pageHeight="1100" math="0" shadow="0" extFonts="Permanent Marker^https://fonts.googleapis.com/css?family=Permanent+Marker">
      <root>
        <mxCell id="0" />
        <mxCell id="1" parent="0" />
        <mxCell id="4tk5XZEfcIRIsnCz8DSe-1" value="Product" style="swimlane;whiteSpace=wrap;html=1;" parent="1" vertex="1">
          <mxGeometry x="40" y="40" width="240" height="420" as="geometry" />
        </mxCell>
        <mxCell id="4tk5XZEfcIRIsnCz8DSe-2" value="&lt;u&gt;Id:int&lt;/u&gt;" style="text;html=1;align=center;verticalAlign=middle;resizable=0;points=[];autosize=1;strokeColor=none;fillColor=none;" parent="4tk5XZEfcIRIsnCz8DSe-1" vertex="1">
          <mxGeometry x="10" y="40" width="50" height="30" as="geometry" />
        </mxCell>
        <mxCell id="4tk5XZEfcIRIsnCz8DSe-3" value="name:nvarchar(255)" style="text;html=1;align=center;verticalAlign=middle;resizable=0;points=[];autosize=1;strokeColor=none;fillColor=none;" parent="4tk5XZEfcIRIsnCz8DSe-1" vertex="1">
          <mxGeometry x="10" y="70" width="130" height="30" as="geometry" />
        </mxCell>
        <mxCell id="4tk5XZEfcIRIsnCz8DSe-5" value="min_price:double" style="text;html=1;align=center;verticalAlign=middle;resizable=0;points=[];autosize=1;strokeColor=none;fillColor=none;" parent="4tk5XZEfcIRIsnCz8DSe-1" vertex="1">
          <mxGeometry x="10" y="100" width="110" height="30" as="geometry" />
        </mxCell>
        <mxCell id="4tk5XZEfcIRIsnCz8DSe-23" value="max_price:double" style="text;html=1;align=center;verticalAlign=middle;resizable=0;points=[];autosize=1;strokeColor=none;fillColor=none;" parent="4tk5XZEfcIRIsnCz8DSe-1" vertex="1">
          <mxGeometry x="15" y="130" width="120" height="30" as="geometry" />
        </mxCell>
        <mxCell id="4tk5XZEfcIRIsnCz8DSe-24" value="endow:int" style="text;html=1;align=center;verticalAlign=middle;resizable=0;points=[];autosize=1;strokeColor=none;fillColor=none;" parent="4tk5XZEfcIRIsnCz8DSe-1" vertex="1">
          <mxGeometry x="25" y="240" width="70" height="30" as="geometry" />
        </mxCell>
        <mxCell id="4tk5XZEfcIRIsnCz8DSe-34" value="quantity:int" style="text;html=1;align=center;verticalAlign=middle;resizable=0;points=[];autosize=1;strokeColor=none;fillColor=none;" parent="4tk5XZEfcIRIsnCz8DSe-1" vertex="1">
          <mxGeometry x="15" y="270" width="80" height="30" as="geometry" />
        </mxCell>
        <mxCell id="4tk5XZEfcIRIsnCz8DSe-35" value="brand:nvarchar(255)" style="text;html=1;align=center;verticalAlign=middle;resizable=0;points=[];autosize=1;strokeColor=none;fillColor=none;" parent="4tk5XZEfcIRIsnCz8DSe-1" vertex="1">
          <mxGeometry x="15" y="290" width="130" height="30" as="geometry" />
        </mxCell>
        <mxCell id="4tk5XZEfcIRIsnCz8DSe-36" value="country_of_origin :int" style="text;html=1;align=center;verticalAlign=middle;resizable=0;points=[];autosize=1;strokeColor=none;fillColor=none;" parent="4tk5XZEfcIRIsnCz8DSe-1" vertex="1">
          <mxGeometry x="25" y="320" width="130" height="30" as="geometry" />
        </mxCell>
        <mxCell id="4tk5XZEfcIRIsnCz8DSe-39" value="description:text" style="text;html=1;align=center;verticalAlign=middle;resizable=0;points=[];autosize=1;strokeColor=none;fillColor=none;" parent="4tk5XZEfcIRIsnCz8DSe-1" vertex="1">
          <mxGeometry x="15" y="190" width="100" height="30" as="geometry" />
        </mxCell>
        <mxCell id="4tk5XZEfcIRIsnCz8DSe-40" value="warranty_duration: date" style="text;html=1;align=center;verticalAlign=middle;resizable=0;points=[];autosize=1;strokeColor=none;fillColor=none;" parent="4tk5XZEfcIRIsnCz8DSe-1" vertex="1">
          <mxGeometry x="10" y="360" width="150" height="30" as="geometry" />
        </mxCell>
        <mxCell id="R4gdVwZwIECFAitnqpdo-4" value="category:int" style="text;html=1;align=center;verticalAlign=middle;resizable=0;points=[];autosize=1;strokeColor=none;fillColor=none;" parent="4tk5XZEfcIRIsnCz8DSe-1" vertex="1">
          <mxGeometry x="10" y="210" width="90" height="30" as="geometry" />
        </mxCell>
        <mxCell id="ZYIOIVU5a_o0axoZ2Udk-1" value="image:varchar(255)" style="text;html=1;align=center;verticalAlign=middle;resizable=0;points=[];autosize=1;strokeColor=none;fillColor=none;" vertex="1" parent="4tk5XZEfcIRIsnCz8DSe-1">
          <mxGeometry x="10" y="160" width="130" height="30" as="geometry" />
        </mxCell>
        <mxCell id="4tk5XZEfcIRIsnCz8DSe-13" value="Rateting_Product" style="swimlane;whiteSpace=wrap;html=1;startSize=23;" parent="1" vertex="1">
          <mxGeometry x="340" y="40" width="240" height="120" as="geometry" />
        </mxCell>
        <mxCell id="4tk5XZEfcIRIsnCz8DSe-14" value="&lt;u&gt;Id:int&lt;/u&gt;" style="text;html=1;align=center;verticalAlign=middle;resizable=0;points=[];autosize=1;strokeColor=none;fillColor=none;" parent="4tk5XZEfcIRIsnCz8DSe-13" vertex="1">
          <mxGeometry x="10" y="40" width="50" height="30" as="geometry" />
        </mxCell>
        <mxCell id="4tk5XZEfcIRIsnCz8DSe-18" value="rate:double" style="text;html=1;align=center;verticalAlign=middle;resizable=0;points=[];autosize=1;strokeColor=none;fillColor=none;" parent="4tk5XZEfcIRIsnCz8DSe-13" vertex="1">
          <mxGeometry x="10" y="70" width="80" height="30" as="geometry" />
        </mxCell>
        <mxCell id="4tk5XZEfcIRIsnCz8DSe-25" value="Endow" style="swimlane;whiteSpace=wrap;html=1;" parent="1" vertex="1">
          <mxGeometry x="-250" y="240" width="240" height="130" as="geometry" />
        </mxCell>
        <mxCell id="4tk5XZEfcIRIsnCz8DSe-26" value="&lt;u&gt;Id:int&lt;/u&gt;" style="text;html=1;align=center;verticalAlign=middle;resizable=0;points=[];autosize=1;strokeColor=none;fillColor=none;" parent="4tk5XZEfcIRIsnCz8DSe-25" vertex="1">
          <mxGeometry x="10" y="40" width="50" height="30" as="geometry" />
        </mxCell>
        <mxCell id="4tk5XZEfcIRIsnCz8DSe-31" value="name:nvarchar(255)" style="text;html=1;align=center;verticalAlign=middle;resizable=0;points=[];autosize=1;strokeColor=none;fillColor=none;" parent="4tk5XZEfcIRIsnCz8DSe-25" vertex="1">
          <mxGeometry x="10" y="78" width="130" height="30" as="geometry" />
        </mxCell>
        <mxCell id="R4gdVwZwIECFAitnqpdo-1" value="" style="endArrow=none;html=1;rounded=0;" parent="4tk5XZEfcIRIsnCz8DSe-25" target="4tk5XZEfcIRIsnCz8DSe-24" edge="1">
          <mxGeometry width="50" height="50" relative="1" as="geometry">
            <mxPoint x="80" y="60" as="sourcePoint" />
            <mxPoint x="290" y="30" as="targetPoint" />
          </mxGeometry>
        </mxCell>
        <mxCell id="4tk5XZEfcIRIsnCz8DSe-42" value="" style="endArrow=classic;html=1;rounded=0;exitX=0;exitY=0.5;exitDx=0;exitDy=0;exitPerimeter=0;" parent="1" source="4tk5XZEfcIRIsnCz8DSe-14" edge="1">
          <mxGeometry width="50" height="50" relative="1" as="geometry">
            <mxPoint x="330" y="95" as="sourcePoint" />
            <mxPoint x="130" y="95" as="targetPoint" />
          </mxGeometry>
        </mxCell>
        <mxCell id="3fiXUkhz3zJverhbDCjl-15" value="cities" style="swimlane;whiteSpace=wrap;html=1;" parent="1" vertex="1">
          <mxGeometry x="-340" y="730" width="240" height="160" as="geometry" />
        </mxCell>
        <mxCell id="3fiXUkhz3zJverhbDCjl-16" value="&lt;u&gt;Id:int&lt;/u&gt;" style="text;html=1;align=center;verticalAlign=middle;resizable=0;points=[];autosize=1;strokeColor=none;fillColor=none;" parent="3fiXUkhz3zJverhbDCjl-15" vertex="1">
          <mxGeometry x="10" y="40" width="50" height="30" as="geometry" />
        </mxCell>
        <mxCell id="3fiXUkhz3zJverhbDCjl-17" value="name :nvarchar(255)" style="text;html=1;align=center;verticalAlign=middle;resizable=0;points=[];autosize=1;strokeColor=none;fillColor=none;" parent="3fiXUkhz3zJverhbDCjl-15" vertex="1">
          <mxGeometry x="10" y="90" width="130" height="30" as="geometry" />
        </mxCell>
        <mxCell id="3fiXUkhz3zJverhbDCjl-32" value="" style="endArrow=none;html=1;rounded=0;" parent="3fiXUkhz3zJverhbDCjl-15" target="3fiXUkhz3zJverhbDCjl-24" edge="1">
          <mxGeometry width="50" height="50" relative="1" as="geometry">
            <mxPoint x="70" y="60" as="sourcePoint" />
            <mxPoint x="120" y="10" as="targetPoint" />
            <Array as="points">
              <mxPoint x="260" y="60" />
            </Array>
          </mxGeometry>
        </mxCell>
        <mxCell id="3fiXUkhz3zJverhbDCjl-18" value="districts" style="swimlane;whiteSpace=wrap;html=1;startSize=20;" parent="1" vertex="1">
          <mxGeometry y="730" width="240" height="160" as="geometry" />
        </mxCell>
        <mxCell id="3fiXUkhz3zJverhbDCjl-19" value="&lt;u&gt;Id:int&lt;/u&gt;" style="text;html=1;align=center;verticalAlign=middle;resizable=0;points=[];autosize=1;strokeColor=none;fillColor=none;" parent="3fiXUkhz3zJverhbDCjl-18" vertex="1">
          <mxGeometry x="10" y="40" width="50" height="30" as="geometry" />
        </mxCell>
        <mxCell id="3fiXUkhz3zJverhbDCjl-20" value="name :nvarchar(255)" style="text;html=1;align=center;verticalAlign=middle;resizable=0;points=[];autosize=1;strokeColor=none;fillColor=none;" parent="3fiXUkhz3zJverhbDCjl-18" vertex="1">
          <mxGeometry x="10" y="80" width="130" height="30" as="geometry" />
        </mxCell>
        <mxCell id="3fiXUkhz3zJverhbDCjl-24" value="citi_id:int" style="text;html=1;align=center;verticalAlign=middle;resizable=0;points=[];autosize=1;strokeColor=none;fillColor=none;" parent="3fiXUkhz3zJverhbDCjl-18" vertex="1">
          <mxGeometry x="10" y="120" width="70" height="30" as="geometry" />
        </mxCell>
        <mxCell id="3fiXUkhz3zJverhbDCjl-25" value="towns" style="swimlane;whiteSpace=wrap;html=1;startSize=20;" parent="1" vertex="1">
          <mxGeometry x="360" y="730" width="240" height="160" as="geometry" />
        </mxCell>
        <mxCell id="3fiXUkhz3zJverhbDCjl-26" value="&lt;u&gt;Id:int&lt;/u&gt;" style="text;html=1;align=center;verticalAlign=middle;resizable=0;points=[];autosize=1;strokeColor=none;fillColor=none;" parent="3fiXUkhz3zJverhbDCjl-25" vertex="1">
          <mxGeometry x="10" y="40" width="50" height="30" as="geometry" />
        </mxCell>
        <mxCell id="3fiXUkhz3zJverhbDCjl-27" value="name :nvarchar(255)" style="text;html=1;align=center;verticalAlign=middle;resizable=0;points=[];autosize=1;strokeColor=none;fillColor=none;" parent="3fiXUkhz3zJverhbDCjl-25" vertex="1">
          <mxGeometry x="10" y="80" width="130" height="30" as="geometry" />
        </mxCell>
        <mxCell id="3fiXUkhz3zJverhbDCjl-28" value="districts_id:int" style="text;html=1;align=center;verticalAlign=middle;resizable=0;points=[];autosize=1;strokeColor=none;fillColor=none;" parent="3fiXUkhz3zJverhbDCjl-25" vertex="1">
          <mxGeometry x="15" y="120" width="100" height="30" as="geometry" />
        </mxCell>
        <mxCell id="3fiXUkhz3zJverhbDCjl-29" value="" style="endArrow=none;html=1;rounded=0;" parent="1" source="3fiXUkhz3zJverhbDCjl-16" edge="1">
          <mxGeometry width="50" height="50" relative="1" as="geometry">
            <mxPoint x="140" y="700" as="sourcePoint" />
            <mxPoint x="120" y="580" as="targetPoint" />
            <Array as="points">
              <mxPoint x="-430" y="785" />
              <mxPoint x="-430" y="650" />
            </Array>
          </mxGeometry>
        </mxCell>
        <mxCell id="3fiXUkhz3zJverhbDCjl-33" value="" style="endArrow=none;html=1;rounded=0;exitX=1.08;exitY=0.767;exitDx=0;exitDy=0;exitPerimeter=0;" parent="1" source="3fiXUkhz3zJverhbDCjl-19" target="3fiXUkhz3zJverhbDCjl-28" edge="1">
          <mxGeometry width="50" height="50" relative="1" as="geometry">
            <mxPoint x="140" y="700" as="sourcePoint" />
            <mxPoint x="190" y="650" as="targetPoint" />
          </mxGeometry>
        </mxCell>
        <mxCell id="3fiXUkhz3zJverhbDCjl-34" value="" style="endArrow=none;html=1;rounded=0;exitX=1.08;exitY=0.7;exitDx=0;exitDy=0;exitPerimeter=0;entryX=1.038;entryY=0.633;entryDx=0;entryDy=0;entryPerimeter=0;" parent="1" target="4tk5XZEfcIRIsnCz8DSe-36" edge="1">
          <mxGeometry width="50" height="50" relative="1" as="geometry">
            <mxPoint x="104" y="581" as="sourcePoint" />
            <mxPoint x="300" y="320" as="targetPoint" />
            <Array as="points">
              <mxPoint x="270" y="570" />
              <mxPoint x="300" y="380" />
            </Array>
          </mxGeometry>
        </mxCell>
      </root>
    </mxGraphModel>
  </diagram>
</mxfile>
